<svg xmlns="http://www.w3.org/2000/svg" xmlns:xlink="http://www.w3.org/1999/xlink" width="500" zoomAndPan="magnify" viewBox="0 0 375 374.999991" height="500" preserveAspectRatio="xMidYMid meet" version="1.0"><defs><g/><clipPath id="id1"><path d="M 123.261719 125.480469 L 244 125.480469 L 244 228.230469 L 123.261719 228.230469 Z M 123.261719 125.480469 " clip-rule="nonzero"/></clipPath><clipPath id="id2"><path d="M 241 207 L 251.511719 207 L 251.511719 219 L 241 219 Z M 241 207 " clip-rule="nonzero"/></clipPath><clipPath id="id3"><path d="M 180 100 L 258 100 L 258 164 L 180 164 Z M 180 100 " clip-rule="nonzero"/></clipPath><clipPath id="id4"><path d="M 190.875 98.492188 L 258.78125 110.722656 L 248.28125 169.035156 L 180.371094 156.804688 Z M 190.875 98.492188 " clip-rule="nonzero"/></clipPath><clipPath id="id5"><path d="M 259.507812 107.890625 L 186.433594 94.730469 L 175.132812 157.46875 L 248.207031 170.632812 Z M 259.507812 107.890625 " clip-rule="nonzero"/></clipPath></defs><rect x="-37.5" width="450" fill="#ffffff" y="-37.499999" height="449.999989" fill-opacity="1"/><rect x="-37.5" width="450" fill="#ffffff" y="-37.499999" height="449.999989" fill-opacity="1"/><rect x="-37.5" width="450" fill="#ffffff" y="-37.499999" height="449.999989" fill-opacity="1"/><g clip-path="url(#id1)"><path fill="#00c2cb" d="M 123.476562 208.773438 C 123.617188 209.445312 123.871094 210.105469 124.050781 210.765625 C 124.15625 211.152344 124.1875 211.496094 124.457031 211.808594 C 125.140625 212.605469 125.394531 211.835938 125.863281 211.238281 C 126.570312 210.335938 127.269531 209.0625 127.636719 207.984375 C 127.917969 207.152344 127.976562 206.433594 127.964844 205.574219 C 127.953125 204.480469 127.644531 203.574219 127.445312 202.515625 C 127.339844 201.9375 127.265625 201.335938 127.226562 200.753906 C 127.136719 199.335938 127.160156 197.910156 127.160156 196.484375 C 127.160156 195.585938 127.160156 194.691406 127.160156 193.972656 C 127.160156 192.898438 127.34375 192 127.519531 190.921875 C 127.519531 190.207031 127.519531 189.488281 127.699219 188.769531 C 127.699219 188.054688 127.878906 187.515625 127.878906 186.976562 C 128.058594 185.542969 128.238281 183.925781 128.238281 182.492188 C 128.238281 181.144531 128.488281 179.757812 128.589844 178.414062 C 128.703125 176.9375 128.960938 175.476562 129.164062 174.011719 C 129.425781 172.089844 129.59375 170.132812 130.015625 168.25 C 130.21875 168.546875 130.246094 169.617188 130.242188 170.035156 C 130.230469 172.691406 130.230469 175.574219 130.753906 178.1875 C 131.113281 180.699219 131.292969 183.210938 131.472656 185.71875 C 131.652344 186.617188 132.011719 187.515625 132.011719 188.589844 C 132.011719 189.488281 132.191406 190.207031 132.371094 191.101562 C 132.550781 193.074219 132.910156 195.046875 133.269531 197.203125 C 133.628906 198.816406 133.628906 200.429688 133.804688 202.046875 C 134.164062 204.378906 134.703125 206.53125 134.882812 208.863281 C 135.0625 211.015625 135.242188 213.347656 135.601562 215.5 C 135.960938 217.652344 136.320312 219.984375 136.5 222.136719 C 137.398438 222.136719 138.117188 222.316406 138.835938 222.496094 C 139.550781 222.675781 140.089844 222.675781 140.808594 222.855469 C 141.527344 222.855469 142.246094 223.035156 142.964844 223.035156 C 143.863281 223.214844 144.761719 223.574219 145.660156 223.75 C 146.375 223.929688 147.453125 224.46875 148.171875 224.109375 C 148.710938 223.929688 148.890625 222.675781 148.890625 222.136719 C 149.25 220.703125 149.789062 219.085938 149.96875 217.652344 C 150.148438 216.933594 150.328125 216.039062 150.507812 215.140625 C 150.867188 213.707031 151.582031 212.089844 151.761719 210.476562 C 152.121094 208.863281 152.660156 207.246094 153.019531 205.632812 C 153.378906 204.738281 153.378906 204.019531 153.738281 203.300781 C 153.917969 202.582031 154.277344 201.863281 154.457031 201.148438 C 154.816406 200.429688 155.355469 199.535156 155.355469 198.636719 C 156.074219 198.636719 156.433594 199.175781 156.972656 199.535156 C 157.511719 199.894531 158.226562 200.074219 158.765625 200.25 C 159.484375 200.609375 160.203125 200.789062 160.921875 200.96875 C 162.539062 201.507812 164.152344 201.507812 165.769531 201.863281 C 167.207031 202.222656 168.464844 202.402344 169.898438 202.402344 C 171.335938 202.402344 172.773438 202.402344 174.210938 202.402344 C 174.75 202.402344 175.289062 202.402344 175.828125 202.402344 C 176.183594 202.402344 176.183594 202.222656 176.542969 202.222656 C 177.082031 202.046875 177.621094 202.046875 178.339844 202.046875 C 179.238281 201.863281 180.316406 201.6875 181.214844 201.507812 C 182.289062 201.148438 183.367188 200.789062 184.445312 200.429688 C 186.0625 199.894531 187.496094 199.175781 189.113281 198.457031 C 189.832031 198.097656 190.371094 197.738281 190.910156 197.382812 C 191.269531 197.023438 191.628906 196.484375 192.167969 196.484375 L 192.347656 196.484375 C 192.347656 196.84375 192.527344 197.382812 192.707031 197.738281 C 192.886719 198.277344 193.066406 198.816406 193.425781 199.535156 C 193.964844 200.789062 194.679688 202.222656 195.21875 203.660156 C 195.9375 205.453125 196.476562 207.246094 197.195312 209.042969 C 197.734375 210.117188 197.914062 211.375 198.273438 212.628906 C 198.8125 213.882812 199.171875 215.140625 199.527344 216.394531 C 200.066406 217.832031 200.605469 219.085938 200.964844 220.523438 C 201.144531 221.597656 201.503906 222.675781 201.683594 223.75 C 201.863281 224.289062 202.222656 225.007812 202.222656 225.546875 C 202.222656 225.398438 208.394531 226.113281 208.882812 226.15625 C 209.867188 226.238281 212.816406 226.355469 212.816406 225.007812 C 212.816406 224.648438 212.816406 224.289062 212.996094 223.75 C 212.996094 223.214844 212.996094 222.675781 212.996094 221.957031 C 212.996094 220.34375 212.996094 218.550781 212.996094 216.933594 C 212.996094 214.421875 212.996094 212.089844 212.996094 209.578125 C 212.996094 204.734375 212.996094 200.074219 212.996094 195.226562 C 212.996094 193.253906 212.996094 191.460938 213.175781 189.488281 C 213.175781 189.128906 213.355469 188.410156 213.535156 188.054688 C 213.714844 187.691406 214.074219 187.871094 214.433594 187.871094 C 215.511719 188.054688 216.410156 188.410156 217.308594 188.769531 C 218.203125 188.949219 219.101562 189.488281 220.179688 189.847656 C 221.078125 190.382812 222.15625 190.921875 222.875 191.640625 C 223.949219 192.71875 224.667969 193.972656 225.207031 195.226562 C 225.746094 196.664062 226.285156 198.097656 226.644531 199.710938 C 227.183594 201.6875 227.542969 203.480469 227.902344 205.453125 C 228.082031 206.351562 228.261719 207.425781 228.261719 208.324219 C 228.441406 208.863281 228.441406 209.398438 228.617188 209.9375 C 228.617188 210.296875 228.617188 210.835938 228.617188 211.371094 C 228.976562 212.988281 228.800781 214.960938 228.800781 216.753906 C 228.800781 218.726562 228.800781 220.878906 227.183594 222.316406 C 226.464844 222.851562 225.386719 222.851562 224.847656 222.136719 C 224.308594 221.597656 224.308594 220.34375 224.128906 219.625 C 223.949219 218.726562 223.949219 217.472656 224.308594 216.574219 C 224.308594 216.035156 224.488281 215.679688 224.488281 215.140625 C 224.667969 214.78125 225.027344 214.421875 225.386719 214.0625 C 225.925781 213.347656 226.105469 212.269531 225.566406 211.371094 C 225.207031 211.015625 224.667969 211.015625 224.128906 211.015625 C 223.410156 211.195312 223.050781 211.554688 222.691406 212.089844 C 222.332031 211.015625 222.332031 209.578125 220.898438 209.578125 C 220.539062 209.578125 220.179688 209.578125 219.820312 209.9375 C 219.640625 210.117188 219.640625 210.296875 219.640625 210.476562 C 219.640625 210.835938 219.820312 211.371094 219.820312 211.910156 C 219.820312 212.808594 219.820312 213.882812 219.820312 214.78125 C 219.820312 216.214844 219.640625 217.832031 219.820312 219.265625 C 220 220.34375 220.179688 221.417969 220.359375 222.496094 C 220.71875 223.75 221.257812 225.007812 221.976562 226.082031 C 222.152344 226.621094 222.515625 227.160156 223.050781 227.339844 C 223.589844 227.515625 223.949219 228.054688 224.488281 228.054688 C 225.746094 228.234375 226.644531 227.878906 227.902344 227.699219 C 228.261719 227.699219 228.617188 227.519531 229.15625 227.519531 C 229.695312 227.339844 230.234375 226.800781 230.773438 226.441406 C 231.3125 226.082031 231.671875 225.902344 232.03125 225.367188 C 232.390625 225.007812 232.75 224.46875 233.109375 224.109375 C 234.007812 222.855469 235.082031 221.417969 235.980469 220.164062 C 237.597656 218.191406 238.136719 215.679688 238.855469 213.347656 C 239.035156 212.449219 239.214844 211.554688 239.394531 210.65625 C 239.753906 209.402344 240.109375 207.964844 240.472656 206.710938 C 241.007812 204.914062 241.546875 203.121094 241.90625 201.328125 C 242.085938 200.074219 242.445312 198.816406 242.625 197.5625 C 242.625 196.664062 242.625 195.945312 242.804688 195.046875 C 242.804688 194.332031 242.984375 193.613281 242.984375 192.898438 C 243.164062 191.28125 243.34375 189.667969 243.34375 188.054688 C 243.34375 186.078125 243.164062 184.285156 243.164062 182.492188 C 243.164062 180.339844 242.984375 178.367188 242.625 176.390625 C 242.445312 174.238281 242.085938 172.265625 241.90625 170.292969 C 241.546875 168.859375 241.546875 167.421875 241.1875 165.808594 C 240.828125 163.117188 240.109375 160.605469 239.214844 157.914062 C 238.855469 156.300781 238.316406 154.6875 237.777344 153.070312 C 237.238281 151.636719 236.519531 150.023438 235.621094 148.765625 C 234.003906 145.894531 231.851562 143.027344 229.15625 141.050781 C 227.988281 140.175781 226.777344 139.230469 225.429688 138.667969 C 224.257812 138.175781 223.507812 137.34375 222.382812 136.75 C 220.691406 135.859375 219.082031 134.730469 217.285156 134.042969 C 216.199219 133.628906 215.125 132.976562 214.027344 132.652344 C 212.695312 132.253906 211.449219 132.101562 210.128906 131.546875 C 207.585938 130.476562 204.878906 130.082031 202.183594 129.609375 C 195.519531 128.453125 189.128906 125.984375 182.289062 125.984375 C 180.660156 125.984375 179.117188 125.664062 177.53125 125.617188 C 175.558594 125.5625 173.550781 125.722656 171.582031 125.863281 C 167.660156 126.140625 163.753906 126.652344 159.894531 127.414062 C 156.964844 127.992188 154.054688 128.957031 151.171875 129.710938 C 149.625 130.117188 148.183594 130.792969 146.761719 131.472656 C 143.25 133.152344 140.519531 135.1875 137.851562 137.914062 C 134.855469 140.980469 132.375 144.605469 131.035156 148.710938 C 130.441406 150.53125 129.957031 152.449219 129.566406 154.320312 C 129.34375 155.410156 129.195312 156.511719 128.878906 157.582031 C 128.734375 158.066406 128.527344 158.535156 128.414062 159.03125 C 128.28125 159.582031 128.363281 160.121094 128.257812 160.679688 C 127.792969 163.078125 127.382812 165.496094 127.222656 167.9375 C 127.148438 169.09375 127.023438 170.226562 126.925781 171.398438 C 126.640625 174.738281 126.363281 178.070312 126.082031 181.414062 C 125.6875 186.117188 125.402344 190.804688 125.171875 195.519531 C 125.054688 197.945312 125.058594 200.367188 124.277344 202.671875 C 123.980469 203.546875 123.449219 204.355469 123.332031 205.304688 C 123.203125 206.390625 123.253906 207.714844 123.476562 208.773438 Z M 226.5625 165.179688 C 226.953125 164.789062 228.125 164.597656 228.710938 164.789062 C 228.90625 164.789062 229.101562 164.988281 229.296875 165.179688 C 229.492188 165.179688 229.6875 165.179688 229.878906 165.375 C 230.234375 165.492188 230.363281 165.820312 230.417969 166.148438 C 230.554688 166.359375 230.660156 166.648438 230.660156 166.9375 C 230.859375 167.523438 230.660156 168.105469 230.273438 168.691406 C 229.6875 169.277344 229.6875 169.472656 228.90625 169.472656 C 228.515625 169.472656 228.125 169.472656 227.734375 169.472656 C 225.78125 169.472656 225 166.351562 226.5625 165.179688 Z M 185.757812 158.746094 C 185.757812 157.574219 185.953125 156.597656 186.148438 155.429688 C 186.34375 154.257812 186.925781 153.285156 187.511719 152.308594 C 188.488281 150.164062 189.855469 148.210938 191.613281 146.652344 C 192.199219 146.261719 192.785156 145.871094 193.371094 145.480469 C 193.957031 145.285156 194.347656 145.089844 194.738281 144.894531 C 195.128906 144.894531 195.519531 144.894531 195.910156 144.703125 C 197.472656 144.3125 198.835938 144.117188 200.398438 144.507812 C 201.375 144.703125 202.351562 144.703125 203.328125 145.089844 C 204.109375 145.480469 204.890625 145.871094 205.671875 146.066406 C 206.648438 146.457031 207.234375 146.847656 208.015625 147.433594 C 208.792969 148.210938 209.578125 148.992188 210.746094 149.578125 L 211.136719 149.773438 C 209.378906 148.992188 207.820312 148.015625 206.0625 147.238281 C 205.085938 146.847656 204.304688 146.847656 203.328125 146.652344 C 202.351562 146.457031 201.570312 146.066406 200.59375 146.066406 C 199.617188 146.066406 198.449219 145.871094 197.667969 146.066406 C 196.496094 146.261719 195.324219 146.652344 194.347656 147.042969 C 193.761719 147.238281 193.371094 147.433594 192.980469 147.824219 C 192.785156 148.019531 192.394531 148.210938 192.394531 148.40625 C 192.003906 148.601562 192.003906 148.992188 191.808594 149.382812 C 191.613281 150.164062 190.832031 150.746094 190.441406 151.527344 C 190.246094 152.113281 190.050781 152.894531 189.855469 153.671875 C 189.074219 155.625 188.882812 157.574219 188.882812 159.71875 C 188.882812 161.867188 188.882812 164.207031 188.882812 166.351562 C 188.882812 166.9375 189.074219 167.523438 189.074219 168.105469 C 189.074219 168.886719 189.074219 169.472656 189.269531 170.058594 C 189.855469 172.203125 190.441406 174.347656 191.417969 176.300781 C 191.808594 177.664062 192.589844 178.640625 193.371094 179.613281 C 194.152344 180.589844 194.933594 181.761719 196.105469 182.539062 C 196.496094 182.929688 196.886719 182.929688 197.472656 182.929688 C 198.054688 182.929688 198.640625 183.125 199.226562 183.125 C 200.398438 183.125 201.570312 182.929688 202.546875 182.34375 C 203.914062 181.5625 205.085938 180.394531 206.0625 179.222656 C 206.453125 178.835938 207.039062 178.25 207.429688 177.664062 C 207.625 177.273438 208.015625 176.6875 208.40625 176.492188 C 208.40625 178.25 207.234375 180.003906 206.257812 181.371094 C 205.867188 182.148438 205.476562 182.734375 204.695312 183.125 C 204.109375 183.515625 203.523438 184.101562 202.9375 184.296875 C 201.179688 185.074219 198.839844 184.683594 197.082031 184.296875 C 196.105469 184.101562 195.128906 183.320312 194.152344 182.734375 C 192.980469 181.957031 191.808594 180.980469 191.027344 179.613281 C 190.246094 178.640625 189.464844 177.46875 188.878906 176.296875 C 188.097656 175.128906 187.710938 173.566406 187.320312 172.203125 C 186.929688 171.421875 186.929688 170.640625 186.734375 169.863281 C 186.734375 169.277344 186.539062 168.886719 186.34375 168.300781 C 186.148438 167.523438 185.953125 166.742188 185.953125 165.765625 C 185.5625 163.425781 185.757812 161.085938 185.757812 158.746094 Z M 185.757812 158.746094 " fill-opacity="1" fill-rule="nonzero"/></g><path fill="#00c2cb" d="M 190.339844 200.964844 C 190.933594 203.335938 192.121094 205.410156 192.714844 207.78125 C 193.011719 208.96875 193.308594 210.152344 193.753906 211.339844 C 194.195312 212.523438 194.644531 213.558594 194.9375 214.597656 C 195.234375 215.929688 195.679688 217.117188 196.125 218.449219 C 196.273438 219.042969 196.421875 219.636719 196.570312 220.230469 C 196.570312 220.378906 196.570312 220.671875 196.570312 220.820312 C 196.570312 221.117188 196.570312 221.117188 196.273438 221.117188 C 195.679688 221.265625 194.9375 221.117188 194.34375 221.117188 C 193.457031 221.117188 192.417969 221.117188 191.378906 221.117188 C 190.636719 221.117188 189.894531 221.117188 189.15625 221.265625 C 188.859375 221.265625 188.5625 221.265625 188.265625 221.265625 C 187.820312 221.265625 187.226562 221.414062 186.929688 221.265625 C 186.484375 221.117188 186.484375 220.375 186.484375 220.082031 C 186.335938 219.488281 186.1875 219.042969 186.039062 218.449219 C 185.890625 217.5625 185.742188 216.820312 185.59375 216.078125 C 185.148438 214.449219 184.851562 212.820312 184.554688 211.1875 C 184.40625 210.300781 184.257812 209.558594 184.109375 208.671875 C 183.960938 207.484375 183.664062 206.449219 183.664062 205.261719 C 183.664062 205.113281 183.664062 204.816406 183.664062 204.667969 C 183.8125 204.523438 183.8125 204.667969 183.960938 204.523438 C 184.257812 204.371094 184.554688 204.226562 184.851562 204.078125 C 185.148438 203.929688 185.296875 203.78125 185.59375 203.78125 C 185.890625 203.632812 186.1875 203.632812 186.484375 203.484375 C 187.226562 203.1875 187.96875 202.742188 188.558594 202.445312 C 189.003906 202.148438 189.449219 201.707031 189.894531 201.558594 " fill-opacity="1" fill-rule="nonzero"/><path fill="#00c2cb" d="M 164.691406 204.667969 C 164.691406 204.667969 164.691406 204.523438 164.839844 204.523438 C 164.988281 205.410156 164.394531 206.300781 164.097656 207.042969 C 163.652344 208.226562 163.355469 209.558594 163.058594 210.746094 C 162.761719 211.929688 162.464844 213.265625 162.167969 214.449219 C 161.871094 215.339844 161.574219 216.226562 161.425781 217.117188 C 161.277344 217.5625 161.128906 217.859375 160.980469 218.152344 C 160.832031 218.597656 160.683594 219.339844 160.09375 219.636719 C 159.796875 219.933594 159.203125 219.785156 158.757812 219.636719 C 157.867188 219.339844 156.828125 219.191406 155.9375 219.042969 C 155.492188 219.042969 155.195312 219.042969 154.898438 218.894531 C 154.605469 218.894531 154.160156 218.894531 154.011719 218.597656 C 153.714844 218.449219 153.863281 217.710938 153.863281 217.414062 C 153.863281 216.820312 154.011719 216.226562 154.160156 215.632812 C 154.308594 214.894531 154.457031 214.152344 154.605469 213.410156 C 154.898438 212.523438 155.046875 211.632812 155.195312 210.746094 C 155.34375 209.855469 155.492188 208.96875 155.789062 208.078125 C 155.9375 207.1875 156.234375 206.449219 156.382812 205.558594 C 156.53125 205.113281 156.679688 204.667969 156.828125 204.226562 C 156.828125 203.929688 156.976562 203.484375 157.125 203.1875 C 157.273438 202.890625 157.273438 202.742188 157.71875 202.742188 C 158.164062 202.890625 158.609375 203.1875 159.054688 203.335938 C 159.941406 203.632812 160.832031 203.929688 161.722656 204.078125 C 162.316406 204.078125 162.761719 204.226562 163.207031 204.226562 C 163.652344 204.371094 163.949219 204.523438 164.542969 204.667969 " fill-opacity="1" fill-rule="nonzero"/><g clip-path="url(#id2)"><path fill="#00c2cb" d="M 243.890625 207.769531 C 244.230469 209.125 244.910156 210.480469 245.8125 211.609375 C 246.265625 212.402344 246.832031 213.082031 247.285156 213.871094 C 247.851562 214.550781 248.414062 215.113281 249.09375 215.679688 C 249.546875 216.019531 250 216.46875 250.453125 216.921875 C 250.675781 217.148438 250.90625 217.375 251.015625 217.488281 C 251.128906 217.714844 251.46875 217.9375 251.46875 218.167969 C 251.582031 218.503906 251.46875 218.390625 251.128906 218.503906 C 250.90625 218.503906 250.792969 218.617188 250.566406 218.617188 C 250 218.730469 249.320312 218.84375 248.753906 218.730469 C 247.398438 218.503906 246.039062 217.9375 244.796875 217.375 C 244.34375 217.148438 243.890625 216.808594 243.4375 216.582031 C 243.210938 216.355469 242.871094 216.246094 242.535156 216.019531 C 242.308594 215.90625 241.855469 215.679688 241.742188 215.453125 C 241.628906 215.226562 241.742188 214.886719 241.855469 214.664062 C 241.96875 214.324219 241.96875 214.097656 242.082031 213.757812 C 242.195312 212.96875 242.417969 212.0625 242.648438 211.269531 C 242.757812 210.707031 242.984375 210.140625 243.097656 209.464844 C 243.210938 209.238281 243.210938 208.898438 243.324219 208.671875 C 243.324219 208.558594 243.324219 208.558594 243.4375 208.445312 " fill-opacity="1" fill-rule="nonzero"/></g><path fill="#00c2cb" d="M 238.914062 219.296875 C 238.800781 219.632812 239.027344 219.859375 239.253906 220.085938 C 239.480469 220.539062 239.707031 220.765625 240.15625 221.101562 C 240.496094 221.441406 240.835938 221.78125 241.289062 222.007812 C 241.628906 222.234375 242.082031 222.347656 242.417969 222.683594 C 242.195312 222.796875 241.96875 222.796875 241.742188 222.910156 C 241.515625 223.023438 241.402344 223.25 241.175781 223.25 C 240.722656 223.25 240.382812 223.25 239.929688 223.136719 C 239.367188 223.023438 238.800781 222.910156 238.347656 222.683594 C 238.007812 222.574219 237.445312 222.347656 237.214844 222.121094 C 237.445312 221.667969 237.667969 221.214844 237.894531 220.765625 C 238.007812 220.539062 238.121094 219.859375 238.460938 219.859375 " fill-opacity="1" fill-rule="nonzero"/><g clip-path="url(#id3)"><g clip-path="url(#id4)"><g clip-path="url(#id5)"><path fill="#7ed957" d="M 251.109375 113.492188 C 249.359375 112.8125 247.761719 112.140625 246.144531 111.589844 C 245.851562 111.484375 245.425781 111.824219 245.054688 111.949219 C 245.246094 112.230469 245.40625 112.589844 245.664062 112.808594 C 247.136719 113.964844 248.65625 115.074219 250.214844 116.242188 C 249.476562 118.796875 248.671875 121.527344 247.9375 124.269531 C 247.828125 124.773438 247.875 125.285156 248.066406 125.757812 C 248.160156 126.015625 248.621094 126.238281 248.949219 126.246094 C 249.121094 126.261719 249.40625 125.839844 249.503906 125.578125 C 250.398438 123.125 251.238281 120.664062 252.132812 118.210938 C 252.679688 116.722656 252.78125 116.722656 254.269531 117.324219 C 255.207031 117.699219 256.210938 117.917969 257.164062 118.210938 C 257.761719 117.585938 257.75 117.078125 257.042969 116.65625 C 256.792969 116.503906 256.5625 116.339844 256.3125 116.191406 C 255.464844 115.707031 254.25 115.402344 253.878906 114.671875 C 253.53125 114 254.171875 112.859375 254.222656 111.910156 C 254.269531 111.167969 254.054688 110.433594 253.960938 109.683594 L 253.410156 109.585938 Z M 226.878906 111.449219 C 226.621094 111.332031 226.316406 110.910156 226.359375 110.65625 C 226.40625 110.402344 226.835938 110.046875 227.074219 110.070312 C 227.890625 110.164062 228.671875 110.34375 229.464844 110.570312 C 230.15625 110.765625 230.652344 110.820312 230.816406 109.910156 C 230.929688 109.265625 231.089844 108.582031 231.429688 108.03125 C 231.679688 107.625 232.238281 107.394531 232.660156 107.085938 C 232.84375 107.519531 233.207031 107.988281 233.152344 108.394531 C 232.984375 109.515625 232.648438 110.621094 232.347656 111.804688 C 232.96875 112.023438 233.625 112.121094 234.101562 112.46875 C 234.511719 112.789062 234.988281 113.429688 234.925781 113.855469 C 234.785156 114.738281 234.121094 114.183594 233.660156 114.046875 C 233.347656 113.957031 233.042969 113.8125 232.761719 113.65625 C 231.945312 113.179688 231.554688 113.511719 231.351562 114.34375 C 231.117188 115.261719 230.914062 116.199219 230.546875 117.074219 C 230.390625 117.464844 229.859375 117.71875 229.511719 118.023438 C 229.347656 117.574219 228.996094 117.109375 229.054688 116.703125 C 229.210938 115.355469 229.503906 114.011719 229.757812 112.59375 C 228.703125 112.195312 227.773438 111.871094 226.878906 111.449219 Z M 220.195312 125.441406 C 220.496094 125.585938 220.652344 126.082031 220.886719 126.421875 C 220.511719 126.476562 220.121094 126.511719 219.742188 126.511719 C 219.484375 126.5 219.09375 126.253906 219.007812 126.34375 C 218.191406 127.226562 217.992188 126.195312 217.34375 125.574219 C 216.917969 126.492188 216.511719 127.203125 216.269531 127.960938 C 215.996094 128.816406 215.914062 129.742188 215.636719 130.617188 C 215.527344 130.929688 214.976562 131.386719 214.847656 131.328125 C 214.464844 131.136719 214.066406 130.769531 213.945312 130.382812 C 213.796875 129.9375 213.914062 129.398438 213.980469 128.925781 C 214.140625 127.839844 214.371094 126.746094 214.570312 125.648438 C 213.90625 125.390625 213.292969 125.140625 212.671875 124.925781 C 212.117188 124.738281 211.382812 124.65625 211.71875 123.863281 C 211.8125 123.636719 212.585938 123.566406 213.023438 123.644531 C 216.066406 124.191406 215.277344 124.523438 216.265625 121.738281 C 216.441406 121.226562 216.398438 120.507812 217.160156 120.816406 C 217.5 120.949219 217.796875 121.613281 217.789062 122.046875 C 217.78125 122.847656 217.53125 123.65625 217.378906 124.5 C 218.351562 124.78125 219.3125 125.039062 220.195312 125.441406 Z M 220.332031 104.933594 C 220.664062 105.101562 220.863281 105.554688 221.117188 105.878906 C 220.753906 106.058594 220.382812 106.390625 220.039062 106.363281 C 219.371094 106.3125 218.726562 106.039062 217.964844 105.832031 C 217.5 107.457031 217.074219 108.96875 216.597656 110.449219 C 216.519531 110.695312 216.058594 111.03125 215.859375 110.980469 C 215.609375 110.917969 215.316406 110.53125 215.261719 110.246094 C 215.195312 109.847656 215.34375 109.421875 215.398438 109.015625 C 215.601562 107.882812 215.804688 106.75 216.015625 105.585938 C 215.707031 105.480469 215.308594 105.476562 215.101562 105.265625 C 214.734375 104.902344 214.183594 104.386719 214.230469 104.027344 C 214.367188 103.179688 215.09375 103.484375 215.609375 103.703125 C 216.621094 104.144531 217.261719 103.964844 217.460938 102.761719 C 217.53125 102.269531 217.703125 101.8125 217.984375 101.410156 C 218.234375 101.070312 218.703125 100.878906 219.0625 100.609375 C 219.207031 101.054688 219.554688 101.554688 219.480469 101.957031 C 219.328125 102.800781 218.945312 103.585938 218.566406 104.617188 C 219.3125 104.714844 219.867188 104.710938 220.332031 104.933594 Z M 204.691406 158.066406 C 204.445312 157.882812 204.421875 157.425781 204.308594 157.089844 C 204.660156 156.980469 205.035156 156.734375 205.332031 156.804688 C 206.035156 156.949219 206.707031 157.261719 207.507812 157.546875 C 207.867188 156.511719 208.125 155.566406 208.539062 154.699219 C 208.6875 154.359375 209.171875 154.167969 209.496094 153.914062 C 209.617188 154.300781 209.875 154.695312 209.8125 155.050781 C 209.648438 155.960938 209.347656 156.867188 209.101562 157.746094 C 211.535156 158.6875 211.601562 158.789062 210.757812 160.117188 L 208.378906 159.445312 C 207.996094 160.507812 207.695312 161.5 207.269531 162.417969 C 207.128906 162.722656 206.621094 162.859375 206.269531 163.074219 C 206.144531 162.703125 205.871094 162.304688 205.917969 161.949219 C 206.042969 161.046875 206.304688 160.171875 206.554688 159.167969 C 205.878906 158.785156 205.238281 158.496094 204.691406 158.066406 Z M 203.910156 114.527344 C 204.039062 114.097656 204.023438 113.605469 204.21875 113.203125 C 204.445312 112.707031 204.757812 112.238281 205.109375 111.816406 C 205.195312 111.726562 205.847656 111.964844 205.835938 112.015625 C 205.78125 112.511719 205.695312 113 205.554688 113.480469 C 205.472656 113.847656 205.359375 114.195312 205.273438 114.5625 C 204.945312 116.300781 204.992188 116.324219 206.601562 116.824219 C 206.949219 116.921875 207.179688 117.382812 207.457031 117.65625 C 207.015625 117.804688 206.542969 118.105469 206.117188 118.078125 C 205.582031 118.050781 205.082031 117.753906 204.542969 117.570312 C 204.234375 118.609375 204.019531 119.496094 203.664062 120.320312 C 203.542969 120.613281 203.0625 120.769531 202.746094 120.992188 C 202.585938 120.632812 202.242188 120.222656 202.300781 119.902344 C 202.429688 119.191406 202.859375 118.539062 202.988281 117.8125 C 203.054688 117.457031 202.847656 116.863281 202.585938 116.675781 C 201.90625 116.222656 201.101562 115.972656 200.390625 115.566406 C 200.109375 115.410156 199.949219 115.035156 199.722656 114.765625 C 200.089844 114.640625 200.53125 114.320312 200.828125 114.40625 C 201.675781 114.699219 202.480469 115.140625 203.375 115.582031 C 203.589844 115.253906 203.757812 114.898438 203.910156 114.527344 Z M 235.847656 132.53125 C 236.03125 132.199219 236.605469 132.074219 237.007812 131.871094 C 237.203125 132.234375 237.585938 132.617188 237.554688 132.980469 C 237.507812 133.617188 237.257812 134.25 237.023438 134.871094 C 236.789062 135.492188 236.789062 135.976562 237.539062 136.234375 C 237.804688 136.316406 238.125 136.460938 238.257812 136.679688 C 238.4375 136.9375 238.457031 137.308594 238.558594 137.621094 C 238.238281 137.667969 237.914062 137.820312 237.613281 137.765625 C 237.140625 137.679688 236.691406 137.476562 236.1875 137.300781 C 235.890625 138.066406 235.695312 138.777344 235.355469 139.414062 C 235.171875 139.75 234.742188 139.933594 234.417969 140.1875 C 234.164062 139.757812 233.601562 139.222656 233.722656 138.929688 C 234.296875 137.480469 234.574219 136.242188 232.789062 135.449219 C 232.644531 135.390625 232.632812 134.777344 232.742188 134.464844 C 232.78125 134.332031 233.292969 134.285156 233.5625 134.335938 C 234.03125 134.4375 234.472656 134.671875 235.011719 134.875 C 235.308594 133.984375 235.484375 133.199219 235.847656 132.53125 Z M 193.339844 132.5625 C 194.195312 132.820312 194.667969 132.609375 194.769531 131.652344 C 194.832031 131.035156 194.960938 130.414062 195.148438 129.839844 C 195.25 129.578125 195.722656 129.171875 195.847656 129.230469 C 196.15625 129.355469 196.511719 129.699219 196.558594 130.023438 C 196.625 130.523438 196.570312 131.015625 196.378906 131.488281 C 195.960938 132.652344 196.199219 133.441406 197.421875 133.890625 C 197.652344 133.964844 197.824219 134.257812 198 134.429688 C 197.316406 136.015625 196.433594 134.375 195.609375 134.695312 C 195.472656 135.074219 195.277344 135.492188 195.148438 135.921875 C 195.007812 136.402344 195.03125 136.945312 194.800781 137.355469 C 194.597656 137.722656 194.121094 137.949219 193.757812 138.234375 C 193.570312 137.832031 193.277344 137.449219 193.210938 137.035156 C 193.152344 136.695312 193.34375 136.308594 193.457031 135.964844 C 193.980469 134.210938 193.980469 134.105469 192.195312 133.714844 C 191.210938 133.503906 191.003906 133.117188 191.59375 132.160156 C 192.246094 132.277344 192.796875 132.394531 193.339844 132.5625 Z M 232.070312 160.4375 C 231.902344 160.703125 231.613281 160.859375 231.296875 160.871094 C 231.128906 160.859375 230.820312 160.4375 230.828125 160.210938 C 230.832031 159.324219 230.9375 158.4375 231.019531 157.421875 L 228.535156 156.191406 C 228.691406 155.886719 228.855469 155.359375 228.972656 155.382812 C 229.960938 155.488281 230.929688 155.699219 232.105469 155.910156 C 232.199219 155.386719 232.242188 154.664062 232.476562 154.042969 C 232.597656 153.75 233.109375 153.617188 233.441406 153.398438 C 233.613281 153.707031 233.96875 154.050781 233.933594 154.339844 C 233.847656 155.09375 233.589844 155.847656 233.382812 156.628906 C 233.925781 156.796875 234.433594 156.851562 234.835938 157.117188 C 235.101562 157.285156 235.210938 157.742188 235.378906 158.050781 C 235.058594 158.203125 234.746094 158.496094 234.429688 158.507812 C 233.957031 158.527344 233.46875 158.371094 232.878906 158.261719 C 232.582031 159.046875 232.382812 159.761719 232.070312 160.4375 Z M 179.914062 145.570312 C 180.050781 145.296875 180.4375 144.964844 180.691406 144.996094 C 181.035156 145.019531 181.597656 145.277344 181.667969 145.554688 C 181.78125 145.992188 181.527344 146.523438 181.542969 147.011719 C 181.597656 147.582031 181.667969 148.152344 181.792969 148.714844 C 181.503906 149.0625 181.058594 149.503906 180.773438 150.046875 C 180.386719 150.742188 180.171875 151.542969 179.789062 152.238281 C 179.65625 152.492188 179.242188 152.578125 178.949219 152.75 C 178.800781 152.410156 178.519531 152.0625 178.539062 151.753906 C 178.585938 151.097656 178.859375 150.449219 178.910156 149.796875 C 178.929688 149.488281 178.660156 149.054688 178.402344 148.851562 C 177.898438 148.464844 176.730469 148.601562 177.121094 147.59375 C 177.511719 146.582031 178.402344 147.40625 179.316406 147.449219 C 179.484375 146.796875 179.632812 146.164062 179.914062 145.570312 Z M 179.914062 145.570312 " fill-opacity="1" fill-rule="nonzero"/></g></g></g><g fill="#7ed957" fill-opacity="1"><g transform="translate(89.418858, 266.381116)"><g><path d="M 18.953125 -4.59375 L 18.953125 0 L 2.09375 0 L 2.09375 -21 L 18.5625 -21 L 18.5625 -16.40625 L 7.984375 -16.40625 L 7.984375 -12.875 L 17.3125 -12.875 L 17.3125 -8.4375 L 7.984375 -8.4375 L 7.984375 -4.59375 Z M 18.953125 -4.59375 "/></g></g></g><g fill="#7ed957" fill-opacity="1"><g transform="translate(112.578837, 266.381116)"><g><path d="M 11.796875 0.421875 C 8.671875 0.421875 6.242188 -0.425781 4.515625 -2.125 C 2.785156 -3.832031 1.921875 -6.242188 1.921875 -9.359375 L 1.921875 -21 L 7.859375 -21 L 7.859375 -9.546875 C 7.859375 -6.179688 9.1875 -4.5 11.84375 -4.5 C 14.488281 -4.5 15.8125 -6.179688 15.8125 -9.546875 L 15.8125 -21 L 21.65625 -21 L 21.65625 -9.359375 C 21.65625 -6.242188 20.789062 -3.832031 19.0625 -2.125 C 17.332031 -0.425781 14.910156 0.421875 11.796875 0.421875 Z M 11.796875 0.421875 "/></g></g></g><g fill="#7ed957" fill-opacity="1"><g transform="translate(139.158814, 266.381116)"><g><path d="M 2.09375 -21 L 8.046875 -21 L 8.046875 0 L 2.09375 0 Z M 2.09375 -21 "/></g></g></g><g fill="#7ed957" fill-opacity="1"><g transform="translate(152.328799, 266.381116)"><g/></g></g><g fill="#7ed957" fill-opacity="1"><g transform="translate(164.058787, 266.381116)"><g><path d="M 6.6875 0.421875 C 5.144531 0.421875 3.742188 0.15625 2.484375 -0.375 C 1.222656 -0.90625 0.195312 -1.671875 -0.59375 -2.671875 L 2.640625 -6.515625 C 3.753906 -5.046875 4.960938 -4.3125 6.265625 -4.3125 C 7.128906 -4.3125 7.785156 -4.570312 8.234375 -5.09375 C 8.679688 -5.613281 8.90625 -6.375 8.90625 -7.375 L 8.90625 -16.40625 L 1.65625 -16.40625 L 1.65625 -21 L 14.796875 -21 L 14.796875 -7.734375 C 14.796875 -5.015625 14.109375 -2.972656 12.734375 -1.609375 C 11.367188 -0.253906 9.351562 0.421875 6.6875 0.421875 Z M 6.6875 0.421875 "/></g></g></g><g fill="#7ed957" fill-opacity="1"><g transform="translate(183.768773, 266.381116)"><g><path d="M 18.953125 -4.59375 L 18.953125 0 L 2.09375 0 L 2.09375 -21 L 18.5625 -21 L 18.5625 -16.40625 L 7.984375 -16.40625 L 7.984375 -12.875 L 17.3125 -12.875 L 17.3125 -8.4375 L 7.984375 -8.4375 L 7.984375 -4.59375 Z M 18.953125 -4.59375 "/></g></g></g><g fill="#7ed957" fill-opacity="1"><g transform="translate(206.928752, 266.381116)"><g><path d="M 12.6875 0.421875 C 10.46875 0.421875 8.472656 -0.046875 6.703125 -0.984375 C 4.929688 -1.929688 3.539062 -3.234375 2.53125 -4.890625 C 1.519531 -6.546875 1.015625 -8.414062 1.015625 -10.5 C 1.015625 -12.582031 1.519531 -14.453125 2.53125 -16.109375 C 3.539062 -17.765625 4.929688 -19.0625 6.703125 -20 C 8.472656 -20.945312 10.46875 -21.421875 12.6875 -21.421875 C 14.90625 -21.421875 16.898438 -20.945312 18.671875 -20 C 20.441406 -19.0625 21.832031 -17.765625 22.84375 -16.109375 C 23.851562 -14.453125 24.359375 -12.582031 24.359375 -10.5 C 24.359375 -8.414062 23.851562 -6.546875 22.84375 -4.890625 C 21.832031 -3.234375 20.441406 -1.929688 18.671875 -0.984375 C 16.898438 -0.046875 14.90625 0.421875 12.6875 0.421875 Z M 12.6875 -4.5 C 13.75 -4.5 14.707031 -4.75 15.5625 -5.25 C 16.425781 -5.75 17.109375 -6.453125 17.609375 -7.359375 C 18.109375 -8.273438 18.359375 -9.320312 18.359375 -10.5 C 18.359375 -11.675781 18.109375 -12.71875 17.609375 -13.625 C 17.109375 -14.539062 16.425781 -15.25 15.5625 -15.75 C 14.707031 -16.25 13.75 -16.5 12.6875 -16.5 C 11.625 -16.5 10.660156 -16.25 9.796875 -15.75 C 8.941406 -15.25 8.265625 -14.539062 7.765625 -13.625 C 7.265625 -12.71875 7.015625 -11.675781 7.015625 -10.5 C 7.015625 -9.320312 7.265625 -8.273438 7.765625 -7.359375 C 8.265625 -6.453125 8.941406 -5.75 9.796875 -5.25 C 10.660156 -4.75 11.625 -4.5 12.6875 -4.5 Z M 12.6875 -4.5 "/></g></g></g><g fill="#7ed957" fill-opacity="1"><g transform="translate(235.308725, 266.381116)"><g><path d="M 22.078125 -21 L 22.078125 0 L 17.1875 0 L 7.921875 -11.1875 L 7.921875 0 L 2.09375 0 L 2.09375 -21 L 6.984375 -21 L 16.265625 -9.8125 L 16.265625 -21 Z M 22.078125 -21 "/></g></g></g><g fill="#7ed957" fill-opacity="1"><g transform="translate(262.488704, 266.381116)"><g><path d="M 16.171875 -10.953125 L 21.421875 -10.953125 L 21.421875 -2.25 C 20.222656 -1.382812 18.84375 -0.722656 17.28125 -0.265625 C 15.71875 0.191406 14.15625 0.421875 12.59375 0.421875 C 10.394531 0.421875 8.414062 -0.0390625 6.65625 -0.96875 C 4.894531 -1.90625 3.515625 -3.203125 2.515625 -4.859375 C 1.515625 -6.515625 1.015625 -8.394531 1.015625 -10.5 C 1.015625 -12.601562 1.515625 -14.484375 2.515625 -16.140625 C 3.515625 -17.796875 4.90625 -19.085938 6.6875 -20.015625 C 8.46875 -20.953125 10.476562 -21.421875 12.71875 -21.421875 C 14.675781 -21.421875 16.4375 -21.085938 18 -20.421875 C 19.5625 -19.765625 20.863281 -18.816406 21.90625 -17.578125 L 18.125 -14.15625 C 16.695312 -15.71875 14.992188 -16.5 13.015625 -16.5 C 11.210938 -16.5 9.757812 -15.953125 8.65625 -14.859375 C 7.5625 -13.773438 7.015625 -12.320312 7.015625 -10.5 C 7.015625 -9.34375 7.265625 -8.304688 7.765625 -7.390625 C 8.265625 -6.484375 8.960938 -5.773438 9.859375 -5.265625 C 10.765625 -4.753906 11.796875 -4.5 12.953125 -4.5 C 14.097656 -4.5 15.171875 -4.726562 16.171875 -5.1875 Z M 16.171875 -10.953125 "/></g></g></g></svg>